<?xml version="1.0" encoding="UTF-8" standalone="no"?>
<!DOCTYPE svg PUBLIC "-//W3C//DTD SVG 1.1//EN" "http://www.w3.org/Graphics/SVG/1.1/DTD/svg11.dtd">
<svg width="100%" height="100%" viewBox="0 0 1000 1000" version="1.1" xmlns="http://www.w3.org/2000/svg" xmlns:xlink="http://www.w3.org/1999/xlink" xml:space="preserve" xmlns:serif="http://www.serif.com/" style="fill-rule:evenodd;clip-rule:evenodd;stroke-linejoin:round;stroke-miterlimit:2;">
    <g>
        <g transform="matrix(1.406989,0.221304,-0.217666,1.383861,-99.073201,-264.168387)">
            <path d="M187.239,597.579C187.08,597.756 186.92,597.933 186.759,598.109C186.918,597.932 187.077,597.753 187.239,597.579ZM187.239,597.579C188.055,596.67 193.608,589.824 194.158,589.146C197.318,585.25 202.66,578.711 217.114,559.847C219.262,557.043 228.933,544.422 243.32,524.297C243.848,523.559 251.989,512.118 256.742,505.291C275.132,478.881 327.464,404.025 383.069,288.564C416.806,218.512 435.39,167.248 438.492,158.39C439.757,154.78 442.604,153.436 443.103,153.201C444.121,152.72 445.25,152.425 446.371,152.375C450.059,152.211 452.371,154.38 452.772,154.756C455.4,157.222 455.533,160.317 455.557,160.854C455.651,163.046 455.525,163.053 454.755,165.104C453.248,169.119 443.607,194.447 426.166,232.757C386.852,319.117 348.713,382.323 334.968,404.785C306.59,451.158 283.191,483.811 266.897,505.666C265.841,507.082 258.142,517.177 254.435,521.84C249.2,528.429 239.428,540.721 223.209,559.187C222.665,559.806 213.326,570.643 196.943,587.648C191.492,593.306 187.278,597.537 187.239,597.579Z" style="fill:rgb(20,126,166);"/>
        </g>
        <g transform="matrix(1.406989,0.221304,-0.217666,1.383861,-99.073201,-264.168387)">
            <path d="M431.473,657.514C431.315,656.977 431.065,656.169 430.608,654.761C421.67,627.249 417.128,606.718 416.928,605.859C408.284,568.653 404.943,540.978 402.839,517.506C399.757,483.142 398.008,440.298 400.878,387.061C401.697,371.87 405.701,294.022 427.409,200.745C433.631,174.012 438.441,158.534 438.45,158.517C439.008,157.487 439.407,156.34 440.161,155.447C442.489,152.688 445.526,152.44 446.054,152.397C449.733,152.096 452.121,154.179 452.535,154.54C455.249,156.907 455.493,159.995 455.535,160.532C455.722,162.891 455.509,162.889 454.781,165.14C446.311,191.304 418.134,290.336 411.593,412.99C407.94,481.478 412.612,529.921 413.606,541.736C414.305,550.038 416.52,574.137 420.072,597.923C420.361,599.856 421.635,608.384 424.063,622.017C426.961,638.286 429.781,650.533 431.093,656.139C431.134,656.313 431.149,656.352 431.473,657.514ZM431.735,658.457C431.777,658.61 431.823,658.774 431.872,658.951C431.817,658.763 431.776,658.61 431.735,658.457ZM431.473,657.514C431.599,657.944 431.667,658.202 431.735,658.457C431.63,658.08 431.544,657.77 431.473,657.514Z" style="fill:rgb(20,126,166);"/>
        </g>
        <g transform="matrix(1.539777,0.24219,-0.229593,1.45969,-149.26954,-323.266857)">
            <path d="M643.407,208.732C645.377,209.175 647.491,208.468 649.456,208.946C650.454,209.189 651.263,210.03 651.967,210.815C652.308,211.196 654.274,213.391 654.162,216.945C654.053,220.39 652.026,222.404 651.674,222.754C651.463,222.964 650.354,224.066 648.547,224.703C642.477,226.841 549.23,255.865 484.581,344.374C462.64,374.412 430.69,428.702 423.903,514.593C423.134,524.326 422.538,537.385 422.489,549.15C422.441,560.577 422.595,568.379 423.148,580.867C423.992,599.911 425.739,614.237 426.193,618.544C428.225,637.834 430.943,653.533 431.763,658.293C431.72,658.165 431.625,658.062 431.582,657.935C431.314,657.144 429.551,650.491 429.379,649.842C423.989,629.509 421.538,616.408 420.988,613.47C417.837,596.63 416.241,583.745 415.459,576.966C414.832,571.53 414.248,563.696 414.162,562.541C413.992,560.259 413.046,548.828 413.12,531.287C413.151,523.883 413.62,515.233 413.696,513.838C416.305,465.774 430.049,362.388 526.218,277.904C580.794,229.959 635.832,211.355 643.365,208.693L643.318,208.712C643.337,208.716 643.357,208.721 643.376,208.725L643.365,208.693C643.373,208.69 643.382,208.687 643.39,208.684L643.407,208.732Z" style="fill:rgb(20,126,166);"/>
        </g>
        <g transform="matrix(1.343396,-0.271465,0.249422,1.234312,-351.485727,48.634722)">
            <path d="M609.487,827.151C609.342,826.71 609.343,826.687 609.527,826.262C609.642,825.997 609.896,825.825 610.124,825.668C610.126,825.666 610.751,825.424 611.937,824.951C612.277,824.816 612.297,824.807 615.805,822.385C617.496,821.217 617.545,821.314 620.795,819.381C624.761,817.022 624.716,816.935 625.722,816.441C705.072,777.442 753.094,703.117 780.249,620.243C806.08,541.412 808.724,467.753 808.882,449.683C808.901,447.469 808.85,447.468 808.886,447.279C809.11,446.092 809.129,444.835 809.559,443.717C809.755,443.205 810.887,440.257 814.061,438.817C814.545,438.597 817.336,437.33 820.617,438.817C821.087,439.03 823.796,440.257 825.119,443.717C825.941,445.867 825.816,445.924 825.768,448.252C825.441,464.269 823.36,483.82 823.032,486.901C817.748,536.516 801.923,628.462 754.136,707.1C714.494,772.336 667.289,805.152 628.278,822.852C628.116,822.926 628.135,822.986 624.635,824.107C621.585,825.083 619.166,825.791 618.459,825.999C617.732,826.212 612.9,827.043 612.884,827.048C612.817,827.07 612.821,827.08 610.854,827.851C610.793,827.876 610.439,828.014 610.037,827.808C609.647,827.608 609.633,827.592 609.487,827.151Z" style="fill:rgb(20,126,166);"/>
        </g>
        <g transform="matrix(1.343396,-0.271465,0.249422,1.234312,-351.485727,48.634722)">
            <path d="M610.462,598.137C610.576,598.047 611.058,598.299 612.253,598.337C618.495,598.537 623.993,598.082 631.424,596.839C633.738,596.451 641.762,595.159 655.564,589.923C656.19,589.686 660.885,587.861 664.44,586.295C702.633,569.467 736.277,535.09 754.261,515.074C784.905,480.969 806.161,447.605 809.793,441.709C811.916,438.263 815.188,437.632 815.747,437.525C816.895,437.303 818.106,437.314 819.246,437.585C819.8,437.717 822.993,438.478 825.051,442.002C827.044,445.416 826.367,448.783 826.249,449.367C825.728,451.958 825.543,451.902 824.095,454.032C815.538,466.624 804.443,480.574 802.661,482.816C764.291,531.061 733.427,555.328 724.912,561.967C697.051,583.69 676.203,592.636 662.076,597.163C661.999,597.187 657.219,598.63 653.577,599.377C650.7,599.967 643.834,601.379 634.112,601.435C632.829,601.443 627.347,601.58 619.207,600.091C614.954,599.313 611.884,598.409 611.772,598.386C611.74,598.379 610.4,598.187 610.462,598.137Z" style="fill:rgb(20,126,166);"/>
        </g>
        <g transform="matrix(1.532177,0.032783,-0.076488,1.263474,-240.784959,-161.891543)">
            <path d="M613.133,597.828C613.357,597.56 613.346,597.077 613.571,596.809C613.715,596.637 613.963,596.672 614.158,596.604C614.312,596.549 614.475,596.525 614.618,596.44C614.62,596.438 615.902,595.462 617.285,594.326C618.014,593.728 618.004,593.714 618.777,593.197C621.43,591.422 623.563,589.746 623.969,589.427C624.569,588.955 625.447,588.598 628.031,586.917C668.681,560.459 653.94,507.127 631.186,449.938C617.373,415.219 603.89,386.462 603.281,365.923C603.162,361.906 605.244,359.41 605.593,358.991C606.321,358.119 607.205,357.403 608.163,356.945C611.311,355.442 614.022,356.882 614.493,357.132C617.576,358.77 618.709,361.969 618.905,362.524C619.926,365.406 619.478,365.51 619.657,368.603C621.125,393.891 648.794,449.233 659.006,497.687C667.212,536.624 665.821,577.024 627.016,595.879C626.492,596.134 623.216,597.027 620.182,597.66C619.962,597.706 619.875,597.849 616.463,597.982C615.164,598.033 615.161,597.995 615.052,598.026C614.894,598.07 614.742,598.137 614.587,598.192C614.041,598.384 614.044,598.411 613.994,598.399C613.507,598.277 613.619,597.95 613.133,597.828Z" style="fill:rgb(20,126,166);"/>
        </g>
        <g transform="matrix(1.364212,0.029189,-0.076488,1.263474,-138.33615,-159.699514)">
            <path d="M346.753,800.896C346.523,800.492 346.52,800.469 346.617,800.018C346.677,799.736 346.887,799.513 347.085,799.321C347.23,799.179 347.254,799.218 349.201,797.975C349.394,797.851 353.495,793.907 354.176,793.353C360.503,788.209 362.353,786.513 363.119,785.97C411.515,751.68 492.109,682.798 549.305,556.036C592.933,459.345 601.098,376.916 601.976,365.989C602.151,363.822 602.043,363.759 602.976,361.863C603.212,361.383 604.572,358.619 607.861,357.614C608.362,357.461 611.255,356.577 614.427,358.478C614.882,358.751 617.502,360.321 618.562,363.914C619.219,366.141 619.096,366.179 618.868,368.467C617.693,380.275 600.725,533.743 494.557,671.825C453.18,725.64 408.627,763.838 366.737,791.872C365.685,792.577 356.336,797.476 356.165,797.556C355.646,797.799 351.528,799.488 351.124,799.653C350.875,799.756 350.615,799.834 350.375,799.96C350.195,800.053 350.206,800.071 348.232,801.323C347.866,801.555 347.845,801.557 347.423,801.435C347,801.313 346.982,801.3 346.753,800.896Z" style="fill:rgb(20,126,166);"/>
        </g>
    </g>
</svg>
